# xmcd
#
# Track frame offsets:
#	150
#	15475
#	27820
#	40361
#	52292
#	66818
#	79349
#	93929
#	108006
#	121230
#	134931
#
# Disc length: 1930 seconds
#
# Revision: 0
# Processed by: cddbd v1.5.1PL0 Copyright (c) Steve Scherf et al.
# Submitted via: dBpowerAMP V4.0
#
DISCID=9307880b
DTITLE=Merle Haggard - It's Not Love (But It's Not Bad)
DYEAR=1972
DGENRE=Country
TTITLE0=It's Not Love (But It's Not Bad)
TTITLE1=Goodbye Comes Hard For Me
TTITLE2=My Woman Keeps Lovin' Her Man
TTITLE3=New York City Blues
TTITLE4=I Wonder What She'll Think About Me Living
TTITLE5=The Conversation Of Ronnie Jones
TTITLE6=A Shoulder To Cry On
TTITLE7=I'd Never Told On You
TTITLE8=Dad's Old Fiddle
TTITLE9=Somewhere To Come When It Rains
TTITLE10=I Wonder Where I'll Find You At Tonight
EXTD=Submitted faithfully by +Sound Man+\nPlease visit my Merle Haggard Discography site at:\nhttp://www.angelfire.com/stars4/anxietyfriend/merlehaggard.htm
EXTT0=
EXTT1=
EXTT2=
EXTT3=
EXTT4=
EXTT5=
EXTT6=
EXTT7=
EXTT8=
EXTT9=
EXTT10=
PLAYORDER=
